<svg width="475" height="118" viewBox="0 0 475 118" fill="none" xmlns="http://www.w3.org/2000/svg">
<path d="M46.86 48.84C45.3933 46.7133 43.4133 45.1733 40.92 44.22C38.5 43.1933 35.9333 42.68 33.22 42.68C31.6067 42.68 30.03 42.8633 28.49 43.23C27.0233 43.5967 25.6667 44.1833 24.42 44.99C23.2467 45.7967 22.2933 46.86 21.56 48.18C20.8267 49.4267 20.46 50.93 20.46 52.69C20.46 55.33 21.3767 57.3467 23.21 58.74C25.0433 60.1333 27.3167 61.3433 30.03 62.37C32.7433 63.3967 35.7133 64.3867 38.94 65.34C42.1667 66.2933 45.1367 67.6133 47.85 69.3C50.5633 70.9867 52.8367 73.2233 54.67 76.01C56.5033 78.7967 57.42 82.5 57.42 87.12C57.42 91.3 56.65 94.9667 55.11 98.12C53.57 101.2 51.48 103.767 48.84 105.82C46.2733 107.873 43.2667 109.413 39.82 110.44C36.3733 111.467 32.7433 111.98 28.93 111.98C24.09 111.98 19.4333 111.173 14.96 109.56C10.4867 107.947 6.63667 105.233 3.41 101.42L13.86 91.3C15.5467 93.8667 17.7467 95.8833 20.46 97.35C23.2467 98.7433 26.18 99.44 29.26 99.44C30.8733 99.44 32.4867 99.22 34.1 98.78C35.7133 98.34 37.18 97.68 38.5 96.8C39.82 95.92 40.8833 94.82 41.69 93.5C42.4967 92.1067 42.9 90.53 42.9 88.77C42.9 85.91 41.9833 83.71 40.15 82.17C38.3167 80.63 36.0433 79.3467 33.33 78.32C30.6167 77.22 27.6467 76.1933 24.42 75.24C21.1933 74.2867 18.2233 73.0033 15.51 71.39C12.7967 69.7033 10.5233 67.5033 8.69 64.79C6.85667 62.0033 5.94 58.3 5.94 53.68C5.94 49.6467 6.74667 46.1633 8.36 43.23C10.0467 40.2967 12.21 37.8767 14.85 35.97C17.5633 33.99 20.6433 32.5233 24.09 31.57C27.5367 30.6167 31.0567 30.14 34.65 30.14C38.7567 30.14 42.7167 30.7633 46.53 32.01C50.4167 33.2567 53.9 35.31 56.98 38.17L46.86 48.84ZM88.3541 32.12H102.214V63.14H138.624V32.12H152.484V110H138.624V75.68H102.214V110H88.3541V32.12ZM284.485 32.12H310.665C314.405 32.12 317.998 32.4867 321.445 33.22C324.965 33.9533 328.045 35.2 330.685 36.96C333.325 38.6467 335.415 40.9567 336.955 43.89C338.568 46.75 339.375 50.3433 339.375 54.67C339.375 59.5833 338.532 63.5433 336.845 66.55C335.158 69.5567 332.885 71.9033 330.025 73.59C327.165 75.2033 323.828 76.3033 320.015 76.89C316.275 77.4767 312.352 77.77 308.245 77.77H298.345V110H284.485V32.12ZM306.705 65.89C308.685 65.89 310.738 65.8167 312.865 65.67C314.992 65.5233 316.935 65.0833 318.695 64.35C320.528 63.6167 321.995 62.5167 323.095 61.05C324.268 59.5833 324.855 57.53 324.855 54.89C324.855 52.47 324.342 50.5633 323.315 49.17C322.288 47.7033 320.968 46.6033 319.355 45.87C317.742 45.0633 315.945 44.55 313.965 44.33C311.985 44.11 310.078 44 308.245 44H298.345V65.89H306.705ZM367.901 32.12H381.761V110H367.901V32.12ZM410.506 97.46L452.086 44.66H411.166V32.12H469.356V44.66L427.446 97.46H470.016V110H410.506V97.46Z" fill="white"/>
<g filter="url(#filter0_if)">
<circle cx="223" cy="69" r="41" fill="#0063E5"/>
</g>
<defs>
<filter id="filter0_if" x="174" y="20" width="98" height="98" filterUnits="userSpaceOnUse" color-interpolation-filters="sRGB">
<feFlood flood-opacity="0" result="BackgroundImageFix"/>
<feBlend mode="normal" in="SourceGraphic" in2="BackgroundImageFix" result="shape"/>
<feColorMatrix in="SourceAlpha" type="matrix" values="0 0 0 0 0 0 0 0 0 0 0 0 0 0 0 0 0 0 127 0" result="hardAlpha"/>
<feOffset dx="20" dy="20"/>
<feGaussianBlur stdDeviation="2"/>
<feComposite in2="hardAlpha" operator="arithmetic" k2="-1" k3="1"/>
<feColorMatrix type="matrix" values="0 0 0 0 0 0 0 0 0 0 0 0 0 0 0 0 0 0 0.25 0"/>
<feBlend mode="normal" in2="shape" result="effect1_innerShadow"/>
<feGaussianBlur stdDeviation="4" result="effect2_foregroundBlur"/>
</filter>
</defs>
</svg>
